# xmcd CD database file
#
# Track frame offsets:
#	150
#	17180
#	42080
#	68852
#	87398
#	110808
#	144697
#	159336
#	175898
#	206911
#	233171
#	247938
#
# Disc length: 3626 seconds
#
# Revision: 0
# Processed by: cddbd v1.5.2PL0 Copyright (c) Steve Scherf et al.
# Submitted via: CDex 1.70beta2
#
DISCID=a60e280c
DTITLE=Various Artist - WTPI Indy Jazz Sampler Volume 3
DYEAR=1999
DGENRE=Jazz
TTITLE0=Cathy Morris - Daily News
TTITLE1=Steve Alee - Don't Let Me Without You
TTITLE2=Mark Buselli - Trouble With Triplets
TTITLE3=Bill Lancton - Big Galoshes
TTITLE4=Gregg Bacon - Transaxul
TTITLE5=The Corn Brothers Trio - Hobbie Days
TTITLE6=Michael Stricklin - Love Forever More
TTITLE7=Sam Gibson - You'd Be So Nice To Come Home To
TTITLE8=Carter-Markiwicz Jazz Quartet - In a Sentimental Mood
TTITLE9=Rodney Stepp and BSB - Just Chillin'
TTITLE10=Tom Mullinix and the Naptown Strutters - Button Down Collar
TTITLE11=Randy Evans - Angel Eyes
EXTD=YEAR: 1999
EXTT0=
EXTT1=
EXTT2=
EXTT3=
EXTT4=
EXTT5=
EXTT6=
EXTT7=
EXTT8=
EXTT9=
EXTT10=
EXTT11=
PLAYORDER=
